<svg width="64" height="64" viewBox="0 0 64 64" fill="none" xmlns="http://www.w3.org/2000/svg">
<g clip-path="url(#clip0_33_113)">
<path d="M55.2727 0H8.72727C3.90733 0 0 3.90733 0 8.72727V55.2727C0 60.0927 3.90733 64 8.72727 64H55.2727C60.0927 64 64 60.0927 64 55.2727V8.72727C64 3.90733 60.0927 0 55.2727 0Z" fill="#157D82"/>
<path d="M52 29.8181C51.9716 30.2244 51.9193 30.6288 51.8436 31.029C51.5906 32.5614 51.0726 34.038 50.3127 35.3926C49.9491 36.0399 48.2 38.4981 47.6655 39.1454C44.7091 42.7054 39.7564 46.8145 31.48 50.8108C31.3054 50.8952 31.1115 50.9314 30.9182 50.9159C30.7249 50.9004 30.5392 50.8336 30.3803 50.7225C30.2214 50.6114 30.095 50.4599 30.0141 50.2837C29.9332 50.1075 29.9007 49.9129 29.92 49.7199L30.3382 45.9636C30.3698 45.6762 30.2861 45.388 30.1054 45.1623C29.9248 44.9366 29.6619 44.7919 29.3745 44.7599C26.6212 44.4845 23.9391 43.7197 21.4545 42.5017C15.7818 39.6981 12 34.6908 12 28.9854C12 20.1999 20.9527 13.0908 32 13.0908C37.5491 13.0908 42.5673 14.909 46.1818 17.7926C49.5673 20.5017 51.7345 24.1781 51.9673 28.2581C52.0061 28.7771 52.017 29.2979 52 29.8181Z" fill="white"/>
<path d="M26.4873 32.5052C26.584 32.5998 26.6606 32.713 26.7125 32.838C26.7643 32.963 26.7904 33.0972 26.7891 33.2325C26.7896 33.367 26.7635 33.5002 26.7123 33.6246C26.6612 33.749 26.586 33.8621 26.4911 33.9574C26.3962 34.0526 26.2833 34.1282 26.1591 34.1798C26.0349 34.2314 25.9018 34.2579 25.7673 34.2579H21.6764C21.4047 34.257 21.1444 34.1486 20.9523 33.9565C20.7602 33.7644 20.6519 33.5042 20.6509 33.2325V25.5052C20.65 25.37 20.6762 25.2359 20.7281 25.111C20.7799 24.9861 20.8563 24.8728 20.9527 24.7779C21.0958 24.6344 21.2785 24.5366 21.4773 24.4971C21.6761 24.4576 21.8822 24.4782 22.0694 24.5561C22.2565 24.6341 22.4162 24.766 22.5282 24.935C22.6402 25.104 22.6993 25.3025 22.6982 25.5052V32.207H25.7673C25.9011 32.206 26.0338 32.2319 26.1575 32.2831C26.2812 32.3343 26.3933 32.4099 26.4873 32.5052Z" fill="#157D82"/>
<path d="M29.8182 25.2834V33.4543C29.8172 33.6662 29.7326 33.8691 29.5828 34.019C29.433 34.1688 29.2301 34.2534 29.0182 34.2543H28.56C28.3478 34.2543 28.1444 34.1701 27.9943 34.02C27.8443 33.87 27.76 33.6665 27.76 33.4543V25.2834C27.76 25.1784 27.7807 25.0743 27.8209 24.9773C27.8611 24.8802 27.92 24.792 27.9943 24.7177C28.0686 24.6435 28.1568 24.5845 28.2539 24.5443C28.3509 24.5041 28.455 24.4834 28.56 24.4834H29.0073C29.1131 24.4825 29.2181 24.5024 29.3162 24.5422C29.4143 24.5819 29.5036 24.6406 29.579 24.7149C29.6543 24.7893 29.7142 24.8778 29.7553 24.9753C29.7963 25.0729 29.8177 25.1776 29.8182 25.2834Z" fill="#157D82"/>
<path d="M39.3164 25.5054V33.189C39.3166 33.4654 39.2093 33.731 39.0173 33.9298C38.8253 34.1286 38.5635 34.245 38.2873 34.2544C38.0284 34.2503 37.7805 34.1491 37.5928 33.9708C37.5564 33.9417 36.1819 32.1526 35.0146 30.6472C34.1419 29.5235 33.3855 28.5417 33.3855 28.5417V33.229C33.3862 33.4277 33.3289 33.6222 33.2208 33.7889C33.1126 33.9555 32.9582 34.087 32.7765 34.1673C32.5947 34.2475 32.3935 34.2731 32.1975 34.2407C32.0015 34.2084 31.8191 34.1197 31.6728 33.9854C31.5672 33.8897 31.4829 33.773 31.4252 33.6427C31.3676 33.5124 31.338 33.3715 31.3382 33.229V25.549C31.3348 25.279 31.4352 25.018 31.6185 24.8198C31.8018 24.6216 32.0542 24.5012 32.3237 24.4835C32.4762 24.481 32.6273 24.5124 32.7663 24.5752C32.9052 24.6381 33.0285 24.731 33.1273 24.8472C33.1709 24.8981 35.2837 27.6472 36.4728 29.2108C36.9455 29.8217 37.2728 30.2508 37.2728 30.2508V25.5235C37.2747 25.2531 37.3829 24.9943 37.5742 24.8031C37.7654 24.6119 38.0242 24.5036 38.2946 24.5017C38.5625 24.5017 38.8197 24.6068 39.0108 24.7945C39.2019 24.9823 39.3116 25.2375 39.3164 25.5054Z" fill="#157D82"/>
<path d="M42.9091 30.3887V32.2069H45.9746C46.1141 32.1986 46.2539 32.2189 46.3854 32.2666C46.5168 32.3142 46.6371 32.3883 46.7388 32.4842C46.8406 32.58 46.9217 32.6957 46.9771 32.824C47.0325 32.9524 47.0611 33.0907 47.0611 33.2305C47.0611 33.3703 47.0325 33.5087 46.9771 33.637C46.9217 33.7654 46.8406 33.881 46.7388 33.9769C46.6371 34.0728 46.5168 34.1468 46.3854 34.1945C46.2539 34.2422 46.1141 34.2625 45.9746 34.2542H41.8728C41.6014 34.2532 41.3415 34.1447 41.15 33.9525C40.9585 33.7603 40.851 33.5001 40.851 33.2287V25.5051C40.8519 25.2344 40.9599 24.975 41.1513 24.7836C41.3427 24.5922 41.6021 24.4842 41.8728 24.4833H45.9637C46.1032 24.4749 46.243 24.4952 46.3744 24.5429C46.5059 24.5906 46.6262 24.6647 46.7279 24.7605C46.8297 24.8564 46.9108 24.9721 46.9662 25.1004C47.0216 25.2288 47.0502 25.3671 47.0502 25.5069C47.0502 25.6467 47.0216 25.785 46.9662 25.9134C46.9108 26.0417 46.8297 26.1574 46.7279 26.2533C46.6262 26.3491 46.5059 26.4232 46.3744 26.4709C46.243 26.5186 46.1032 26.5389 45.9637 26.5305H42.9091V28.3487H45.9746C46.2456 28.3487 46.5055 28.4564 46.6971 28.648C46.8888 28.8396 46.9964 29.0995 46.9964 29.3705C46.9964 29.6415 46.8888 29.9014 46.6971 30.0931C46.5055 30.2847 46.2456 30.3924 45.9746 30.3924L42.9091 30.3887Z" fill="#157D82"/>
</g>
<defs>
<clipPath id="clip0_33_113">
<rect width="64" height="64" fill="white"/>
</clipPath>
</defs>
</svg>
