<svg width="187" height="40" viewBox="0 0 187 40" fill="none" xmlns="http://www.w3.org/2000/svg">
<path d="M184.543 16.7892C184.543 17.2081 184.368 17.4175 184.017 17.4175C183.85 17.4175 183.557 17.2751 183.139 16.9903C182.721 16.7054 182.32 16.2865 181.936 15.7336C181.719 15.4487 180.866 14.4015 179.379 12.5919C177.908 10.7655 175.802 8.17677 173.061 4.82564C172.844 4.55755 172.668 4.4235 172.535 4.4235C172.384 4.4235 172.309 4.59944 172.309 4.9513C172.276 7.02901 172.242 8.85538 172.209 10.4304C172.192 11.9887 172.184 13.304 172.184 14.3764C172.184 15.5158 172.719 16.186 173.788 16.3871C174.34 16.4876 174.616 16.63 174.616 16.8143C174.616 17.0154 174.373 17.1159 173.889 17.1159L171.532 16.9903L169.251 17.1159C168.766 17.1159 168.524 17.0154 168.524 16.8143C168.524 16.63 168.766 16.496 169.251 16.4122C169.568 16.3452 169.836 16.186 170.053 15.9347C170.27 15.6833 170.437 15.4069 170.554 15.1052C170.688 14.7869 170.771 14.5188 170.805 14.301C171.106 11.7876 171.256 8.43649 171.256 4.24757C171.256 3.42654 171.056 2.81495 170.655 2.41282C170.253 2.01068 169.71 1.7007 169.025 1.48288C168.34 1.2483 167.997 1.0221 167.997 0.804273C167.997 0.569693 168.189 0.452404 168.574 0.452404L172.434 0.578071C172.602 0.578071 172.802 0.720495 173.036 1.00534C173.103 1.08912 173.312 1.35721 173.663 1.80961C174.014 2.26202 174.457 2.83171 174.992 3.51869C175.543 4.20568 176.136 4.9513 176.772 5.75558C177.407 6.55985 178.042 7.3725 178.677 8.19353C179.329 8.9978 179.93 9.75181 180.482 10.4555C181.033 11.1425 181.493 11.7206 181.861 12.1898C182.245 12.6422 182.479 12.9186 182.563 13.0192C182.863 13.3878 183.089 13.5721 183.24 13.5721C183.373 13.5721 183.448 13.3962 183.465 13.0443C183.482 12.5081 183.49 11.5698 183.49 10.2293C183.507 8.88889 183.515 7.1463 183.515 5.00157V2.81496C183.499 2.51335 183.331 2.22013 183.014 1.93528C182.696 1.63368 182.32 1.44937 181.886 1.38234C181.451 1.29857 181.234 1.14776 181.234 0.92994C181.234 0.745628 181.476 0.653472 181.961 0.653472H183.39L186.273 0.578071C186.758 0.578071 187 0.670228 187 0.854541C187 1.08912 186.708 1.25668 186.123 1.35721C185.538 1.4745 185.145 1.6253 184.944 1.80961C184.744 1.99393 184.627 2.38768 184.593 2.99089C184.577 3.30925 184.56 4.61619 184.543 6.91172C184.543 9.20725 184.543 12.4997 184.543 16.7892Z" fill="#157D82"/>
<path d="M161.491 16.1106C160.906 16.3954 160.162 16.6719 159.26 16.94C158.357 17.2081 157.438 17.3421 156.502 17.3421C155.332 17.3421 154.221 17.1411 153.168 16.7389C152.115 16.32 151.187 15.7336 150.385 14.9796C149.583 14.2256 148.948 13.3459 148.48 12.3406C148.029 11.3352 147.803 10.2377 147.803 9.04807C147.803 7.85842 148.045 6.74416 148.53 5.70531C149.015 4.6497 149.675 3.71976 150.511 2.91549C151.363 2.11122 152.349 1.48288 153.469 1.03047C154.589 0.561316 155.775 0.326736 157.029 0.326736C157.38 0.326736 157.839 0.360247 158.408 0.42727C158.993 0.494293 159.577 0.58645 160.162 0.70374C160.747 0.804274 161.24 0.913185 161.642 1.03047C162.043 1.13101 162.243 1.22317 162.243 1.30694C162.327 1.94366 162.394 2.47146 162.444 2.89036C162.494 3.29249 162.519 3.58572 162.519 3.77003C162.519 4.33972 162.402 4.62457 162.168 4.62457C161.934 4.62457 161.725 4.38161 161.541 3.8957C161.374 3.40978 161.148 2.99927 160.864 2.66415C160.58 2.32904 160.096 2.01068 159.41 1.70908C158.692 1.42423 157.823 1.28181 156.803 1.28181C155.55 1.28181 154.43 1.6253 153.444 2.31228C152.458 2.99927 151.68 3.92921 151.112 5.10211C150.561 6.275 150.285 7.58195 150.285 9.02294C150.285 10.4639 150.586 11.7457 151.187 12.8684C151.789 13.9742 152.591 14.8455 153.594 15.4823C154.597 16.1022 155.683 16.4122 156.853 16.4122C158.274 16.4122 159.26 16.1357 159.811 15.5828C160.38 15.0131 160.664 14.3345 160.664 13.547L160.714 12.0892C160.714 11.6871 160.647 11.4022 160.513 11.2347C160.38 11.0504 160.037 10.8912 159.486 10.7571C159.218 10.6901 158.984 10.6399 158.784 10.6063C158.6 10.5728 158.449 10.5561 158.332 10.5561C158.115 10.5561 157.94 10.5142 157.806 10.4304C157.689 10.3466 157.63 10.2461 157.63 10.1288C157.63 10.0115 157.689 9.91099 157.806 9.82721C157.94 9.74343 158.048 9.70154 158.132 9.70154L161.291 9.80207L163.522 9.70154C163.873 9.70154 164.048 9.83559 164.048 10.1037C164.048 10.2042 163.981 10.3047 163.848 10.4053C163.714 10.4891 163.538 10.5561 163.321 10.6063C163.02 10.6901 162.795 10.8996 162.644 11.2347C162.511 11.553 162.427 11.93 162.394 12.3657C162.36 12.8013 162.343 13.237 162.343 13.6726V14.3512C162.343 14.5356 162.427 14.7031 162.594 14.8539C162.745 15.0215 162.82 15.1304 162.82 15.1806C162.82 15.4655 162.703 15.6247 162.469 15.6582C162.402 15.6749 162.076 15.8257 161.491 16.1106Z" fill="#157D82"/>
<path d="M139.559 16.9903L136.35 17.1159C135.865 17.1159 135.623 17.0154 135.623 16.8143C135.623 16.63 135.932 16.4792 136.551 16.3619C137.152 16.2614 137.612 16.0771 137.929 15.809C138.247 15.5241 138.406 15.0969 138.406 14.5272V3.16683C138.406 2.58038 138.28 2.16148 138.03 1.91015C137.796 1.65881 137.386 1.4745 136.801 1.35721C136.2 1.25668 135.899 1.08912 135.899 0.854541C135.899 0.670228 136.141 0.578071 136.626 0.578071L139.559 0.653472L142.292 0.578071C142.776 0.578071 143.019 0.670228 143.019 0.854541C143.019 1.08912 142.718 1.25668 142.116 1.35721C141.514 1.4745 141.08 1.66719 140.812 1.93528C140.545 2.18662 140.411 2.59713 140.411 3.16683V14.5272C140.411 15.0969 140.57 15.5241 140.888 15.809C141.222 16.0771 141.698 16.2614 142.317 16.3619C142.918 16.4792 143.219 16.63 143.219 16.8143C143.219 17.0154 142.977 17.1159 142.492 17.1159L139.559 16.9903Z" fill="#157D82"/>
<path d="M131.064 12.9689C131.064 13.7397 130.872 14.4602 130.488 15.1304C130.103 15.8006 129.527 16.3452 128.758 16.7641C127.989 17.183 127.02 17.3924 125.85 17.3924C124.463 17.3924 123.343 17.1913 122.49 16.7892C122.223 16.6719 122.048 16.5295 121.964 16.3619C121.663 15.7252 121.513 14.7618 121.513 13.4716C121.513 13.3375 121.563 13.1867 121.663 13.0192C121.78 12.8349 121.914 12.7427 122.064 12.7427C122.198 12.7427 122.44 13.2956 122.791 14.4015C123.276 15.8425 124.404 16.563 126.176 16.563C127.028 16.563 127.705 16.3033 128.206 15.7839C128.708 15.2644 128.958 14.5607 128.958 13.6726C128.958 12.2652 127.688 10.7069 125.148 8.9978C124.128 8.31082 123.343 7.61546 122.791 6.91172C122.24 6.20798 121.964 5.34506 121.964 4.32297C121.964 3.63598 122.181 2.99089 122.616 2.38769C123.05 1.76773 123.644 1.26505 124.396 0.879674C125.165 0.494293 126.034 0.301603 127.003 0.301603C127.872 0.301603 128.566 0.385381 129.084 0.552938C129.602 0.720495 129.903 0.804273 129.986 0.804273C130.153 0.804273 130.279 0.963452 130.362 1.28181C130.463 1.60017 130.529 1.96879 130.563 2.38769C130.613 2.78982 130.638 3.14169 130.638 3.44329C130.638 3.8957 130.58 4.1219 130.463 4.1219C129.978 4.1219 129.685 3.88732 129.585 3.41816C129.468 2.69767 129.151 2.13635 128.633 1.73421C128.114 1.33208 127.479 1.13101 126.727 1.13101C125.958 1.13101 125.29 1.38234 124.722 1.88502C124.17 2.37093 123.894 3.0244 123.894 3.84543C123.894 4.3481 124.078 4.83401 124.446 5.30317C124.814 5.75558 125.256 6.17447 125.775 6.55985C126.293 6.92848 126.777 7.26359 127.229 7.56519C129.786 9.224 131.064 11.0252 131.064 12.9689Z" fill="#157D82"/>
<path d="M108.247 16.9651L105.364 17.1159C104.879 17.1159 104.637 17.0154 104.637 16.8143C104.637 16.63 104.938 16.4792 105.539 16.3619C106.141 16.2614 106.584 16.0771 106.868 15.809C107.169 15.5241 107.319 15.0885 107.319 14.502V3.19196C107.319 2.60551 107.194 2.18662 106.943 1.93528C106.709 1.66719 106.3 1.4745 105.715 1.35721C105.113 1.25668 104.812 1.08912 104.812 0.854541C104.812 0.670228 105.055 0.578071 105.539 0.578071L109.977 0.653472L115.542 0.578071C115.826 0.578071 115.977 0.653472 115.993 0.804273C116.244 2.16148 116.369 2.99089 116.369 3.29249C116.369 3.61085 116.252 3.77003 116.019 3.77003C115.885 3.77003 115.793 3.68625 115.743 3.51869C115.576 2.98251 115.408 2.572 115.241 2.28715C115.091 1.98555 114.882 1.7761 114.615 1.65881C114.364 1.52477 113.996 1.45774 113.512 1.45774H110.227C110.06 1.45774 109.868 1.54152 109.651 1.70908C109.434 1.85988 109.325 2.04419 109.325 2.26202V7.59032C109.325 7.74113 109.367 7.87517 109.45 7.99246C109.551 8.09299 109.659 8.14326 109.776 8.14326H112.183C112.935 8.14326 113.445 7.81653 113.712 7.16305C113.746 7.09603 113.812 7.01225 113.913 6.91172C114.03 6.79443 114.122 6.73579 114.188 6.73579C114.239 6.73579 114.297 6.77767 114.364 6.86145C114.447 6.92848 114.489 7.02063 114.489 7.13792L114.414 8.52027L114.464 10.2293C114.464 10.5142 114.389 10.6566 114.239 10.6566C113.988 10.6566 113.796 10.4639 113.662 10.0785C113.411 9.32454 113.027 8.94753 112.509 8.94753H110.177C109.86 8.94753 109.634 8.98942 109.5 9.0732C109.383 9.15698 109.325 9.33292 109.325 9.60101V14.4266C109.325 15.0466 109.45 15.4823 109.701 15.7336C109.968 15.9849 110.395 16.1106 110.979 16.1106H113.587C114.188 16.1106 114.656 16.0519 114.991 15.9347C115.325 15.8174 115.601 15.6163 115.818 15.3315C116.052 15.0298 116.294 14.611 116.545 14.0748C116.645 13.9072 116.771 13.8234 116.921 13.8234C117.122 13.8234 117.222 13.9156 117.222 14.0999C117.222 14.435 117.18 14.8204 117.097 15.256C117.03 15.6749 116.929 16.1525 116.796 16.6887C116.712 16.9735 116.595 17.1159 116.445 17.1159L108.247 16.9651Z" fill="#157D82"/>
<path d="M100.177 8.41973C100.177 9.60938 99.9511 10.732 99.4999 11.7876C99.0486 12.8432 98.4219 13.7732 97.6197 14.5774C96.8174 15.3817 95.8899 16.0184 94.8369 16.4876C93.784 16.94 92.6559 17.1662 91.4525 17.1662C91.4358 17.1662 91.2519 17.1578 90.901 17.1411C90.5667 17.1243 90.0653 17.0992 89.3968 17.0657C88.0764 17.0154 87.0235 16.9903 86.238 16.9903L83.6057 17.1159C83.121 17.1159 82.8787 17.0154 82.8787 16.8143C82.8787 16.63 83.1795 16.4792 83.7812 16.3619C84.3661 16.2614 84.7756 16.0771 85.0096 15.809C85.2603 15.5409 85.3856 15.1052 85.3856 14.502V3.19196C85.3856 2.60551 85.2603 2.18662 85.0096 1.93528C84.7756 1.66719 84.3661 1.4745 83.7812 1.35721C83.1795 1.25668 82.8787 1.08912 82.8787 0.854541C82.8787 0.670228 83.121 0.578071 83.6057 0.578071L86.2129 0.628339H86.3884L90.6753 0.42727C92.8313 0.42727 94.6113 0.762384 96.0152 1.43261C97.4191 2.10284 98.4637 3.04116 99.1489 4.24757C99.8342 5.43722 100.177 6.82794 100.177 8.41973ZM87.3912 13.9491C87.3912 14.6026 87.5583 15.0969 87.8926 15.432C88.2436 15.7671 88.7032 15.9933 89.2714 16.1106C89.8564 16.2279 90.4831 16.2865 91.1517 16.2865C92.4553 16.2865 93.6085 15.9765 94.6113 15.3566C95.6141 14.7199 96.3913 13.8402 96.9428 12.7176C97.511 11.5782 97.7952 10.2545 97.7952 8.74647C97.7952 7.62384 97.603 6.60174 97.2186 5.68018C96.8509 4.75862 96.3327 3.96272 95.6642 3.29249C95.0124 2.62226 94.2687 2.11122 93.433 1.75935C92.5974 1.39072 91.7199 1.20641 90.8007 1.20641C89.2297 1.20641 88.277 1.3237 87.9427 1.55828C87.5751 1.80961 87.3912 2.20337 87.3912 2.73955V13.9491Z" fill="#157D82"/>
<path d="M65.691 16.9651L62.6826 17.1159C62.1979 17.1159 61.9556 17.007 61.9556 16.7892C61.9556 16.5714 62.2313 16.3787 62.7829 16.2111C63.7857 15.9095 64.5043 15.2644 64.9389 14.2758C66.5266 10.6063 68.0893 6.66876 69.6269 2.46309C69.8442 1.9269 69.9528 1.54152 69.9528 1.30694C69.9528 1.10588 69.9612 1.00534 69.9779 1.00534C70.5629 0.804274 70.9138 0.636717 71.0308 0.502671C71.081 0.435649 71.1228 0.385381 71.1562 0.351869C71.1896 0.301603 71.2147 0.259714 71.2314 0.226202C71.315 0.0754006 71.3735 0 71.4069 0C71.4904 0 71.574 0.11729 71.6576 0.351869C72.276 2.29553 72.9529 4.38999 73.6882 6.63525C74.4403 8.86376 75.2509 11.2431 76.12 13.7732C76.4375 14.6947 76.7885 15.3231 77.1729 15.6582C77.574 15.9765 78.0587 16.186 78.627 16.2865C79.1952 16.3871 79.4793 16.5797 79.4793 16.8646C79.4793 17.0322 79.237 17.1159 78.7523 17.1159L75.2676 16.9651L72.6353 16.9903C72.1506 16.9903 71.9083 16.8897 71.9083 16.6887C71.9083 16.4373 72.184 16.2781 72.7356 16.2111C73.7551 16.0436 74.2648 15.6666 74.2648 15.0801C74.2648 14.611 73.9473 13.2956 73.3122 11.1342C73.262 10.9498 73.0364 10.8577 72.6353 10.8577H67.847C67.6631 10.8577 67.5211 11.0085 67.4208 11.3101C66.7523 13.2202 66.418 14.3764 66.418 14.7785C66.418 15.1471 66.5517 15.4571 66.8191 15.7085C67.1032 15.943 67.4876 16.1273 67.9723 16.2614C68.457 16.3954 68.6993 16.5546 68.6993 16.7389C68.6993 16.9232 68.457 17.0154 67.9723 17.0154L65.691 16.9651ZM68.0475 9.60101C68.0475 9.7183 68.223 9.77694 68.574 9.77694H72.4598C72.6938 9.77694 72.8108 9.73505 72.8108 9.65127L72.7607 9.39994L70.7801 3.39303C70.6799 3.09142 70.613 2.94062 70.5796 2.94062C70.5294 2.94062 70.4542 3.08305 70.354 3.36789L68.0977 9.39994L68.0475 9.60101Z" fill="#157D82"/>
<path d="M59.713 16.6384C59.713 16.9568 59.4874 17.183 59.0361 17.317C58.6016 17.451 58.1503 17.5181 57.6824 17.5181C56.8969 17.5181 56.1782 17.3421 55.5264 16.9903C54.8913 16.6384 54.323 16.2027 53.8216 15.6833C53.3202 15.1639 52.8857 14.6445 52.518 14.125C52.1503 13.5889 51.8495 13.1448 51.6155 12.793C51.3815 12.4411 51.1642 12.1144 50.9637 11.8128C50.7798 11.5112 50.6211 11.2431 50.4874 11.0085C49.9024 10.1037 48.8578 9.5675 47.3536 9.39994H47.3035C47.0862 9.39994 46.9776 9.5675 46.9776 9.90261V14.2256C46.9776 15.4655 47.5375 16.186 48.6573 16.3871C49.2088 16.4876 49.4846 16.63 49.4846 16.8143C49.4846 17.0154 49.2422 17.1159 48.7575 17.1159C48.5236 17.1159 48.2896 17.1076 48.0556 17.0908C47.8216 17.074 47.596 17.0489 47.3787 17.0154C46.9609 16.9651 46.6015 16.94 46.3007 16.94L43.0416 17.1159C42.5569 17.1159 42.3146 17.0154 42.3146 16.8143C42.3146 16.63 42.6154 16.4792 43.2171 16.3619C43.8188 16.2614 44.2617 16.0771 44.5458 15.809C44.8299 15.5241 44.972 15.0801 44.972 14.4769V3.87056C44.972 3.06629 44.8717 2.47146 44.6712 2.08608C44.4706 1.7007 44.0779 1.45774 43.4929 1.35721C42.9079 1.25668 42.6154 1.08912 42.6154 0.854541C42.6154 0.670228 42.8578 0.578071 43.3425 0.578071L45.7993 0.603206L48.6823 0.477538C52.4428 0.477538 54.323 1.8515 54.323 4.59944C54.323 6.40905 53.3369 7.81653 51.3648 8.82187C51.2979 8.85538 51.2645 8.89727 51.2645 8.94753C51.2645 8.96429 51.2729 8.98942 51.2896 9.02294C51.323 9.05645 51.3481 9.09834 51.3648 9.1486C51.7492 9.7183 52.0584 10.1875 52.2924 10.5561C52.5264 10.9079 52.7353 11.2263 52.9191 11.5112C53.1197 11.7792 53.3286 12.0473 53.5459 12.3154C53.7631 12.5835 54.0389 12.9186 54.3732 13.3208C54.7074 13.7229 55.0417 14.1083 55.376 14.4769C55.7269 14.8455 56.0863 15.1974 56.4539 15.5325C56.8551 15.8844 57.2645 16.1106 57.6824 16.2111C58.1002 16.3117 58.6517 16.3619 59.337 16.3619C59.5877 16.3619 59.713 16.4541 59.713 16.6384ZM46.9776 7.84166C46.9776 8.22704 47.0779 8.47 47.2784 8.57053C47.479 8.67107 47.8216 8.72133 48.3063 8.72133C49.0584 8.72133 49.7102 8.55378 50.2617 8.21866C50.83 7.88355 51.2729 7.42277 51.5904 6.83632C51.908 6.24987 52.0667 5.5964 52.0667 4.8759C52.0667 3.78678 51.8244 2.90711 51.3397 2.23688C50.8717 1.56666 49.986 1.23154 48.6823 1.23154C48.0472 1.23154 47.621 1.34883 47.4038 1.58341C47.2032 1.81799 47.0946 2.15311 47.0779 2.58875C47.0444 3.40978 47.0194 4.25594 47.0027 5.12724C46.9859 5.99853 46.9776 6.90334 46.9776 7.84166Z" fill="#157D82"/>
<path d="M36.1153 10.7069C36.0819 11.9971 35.7811 13.1448 35.2128 14.1502C34.6446 15.1555 33.8841 15.943 32.9315 16.5127C31.9955 17.0657 30.9259 17.3421 29.7225 17.3421C27.3493 17.3421 25.5944 16.7305 24.4579 15.5074C23.3381 14.2675 22.7782 12.4076 22.7782 9.92774V3.24222C22.7782 2.23688 22.3938 1.6253 21.625 1.40748C21.0735 1.25668 20.7977 1.07236 20.7977 0.854541C20.7977 0.670228 21.0401 0.578071 21.5247 0.578071L23.9314 0.653472L25.937 0.603206C26.4217 0.603206 26.664 0.695362 26.664 0.879674C26.664 1.03048 26.3883 1.19803 25.8367 1.38234C25.6027 1.44937 25.3688 1.65881 25.1348 2.01068C24.9008 2.3458 24.7838 2.73955 24.7838 3.19196V10.6315C24.7838 11.6368 25.0261 12.5584 25.5108 13.3962C26.0122 14.2172 26.6807 14.8707 27.5164 15.3566C28.3688 15.8425 29.3047 16.0855 30.3242 16.0855C31.8618 16.0855 33.0317 15.5074 33.834 14.3512C34.6362 13.1783 35.0373 11.5782 35.0373 9.55074C35.0373 9.03131 35.029 8.32757 35.0123 7.43952C34.9955 6.53472 34.9705 5.43722 34.937 4.14703C34.9036 2.50498 34.561 1.59179 33.9092 1.40748C33.3577 1.25668 33.0819 1.08912 33.0819 0.904807C33.0819 0.720495 33.3242 0.628339 33.8089 0.628339L35.6891 0.653472L37.7198 0.578071C38.2045 0.578071 38.4468 0.670228 38.4468 0.854541C38.4468 1.05561 38.1711 1.22316 37.6195 1.35721C36.834 1.50801 36.4162 2.13635 36.366 3.24222C36.3493 3.326 36.3242 3.99623 36.2908 5.25291C36.2574 6.49283 36.1989 8.31082 36.1153 10.7069Z" fill="#157D82"/>
<path d="M3.73539 16.9651L0.727023 17.1159C0.242341 17.1159 0 17.007 0 16.7892C0 16.5714 0.275767 16.3787 0.827302 16.2111C1.83009 15.9095 2.54876 15.2644 2.9833 14.2758C4.57105 10.6063 6.13373 6.66876 7.67135 2.46309C7.88862 1.9269 7.99725 1.54152 7.99725 1.30694C7.99725 1.10588 8.00561 1.00534 8.02232 1.00534C8.60728 0.804274 8.95826 0.636717 9.07525 0.502671C9.12539 0.435649 9.16717 0.385381 9.2006 0.351869C9.23403 0.301603 9.2591 0.259714 9.27581 0.226202C9.35938 0.0754006 9.41787 0 9.4513 0C9.53486 0 9.61843 0.11729 9.70199 0.351869C10.3204 2.29553 10.9973 4.38999 11.7326 6.63525C12.4847 8.86376 13.2953 11.2431 14.1644 13.7732C14.482 14.6947 14.8329 15.3231 15.2173 15.6582C15.6185 15.9765 16.1031 16.186 16.6714 16.2865C17.2396 16.3871 17.5238 16.5797 17.5238 16.8646C17.5238 17.0322 17.2814 17.1159 16.7967 17.1159L13.312 16.9651L10.6797 16.9903C10.195 16.9903 9.95269 16.8897 9.95269 16.6887C9.95269 16.4373 10.2285 16.2781 10.78 16.2111C11.7995 16.0436 12.3092 15.6666 12.3092 15.0801C12.3092 14.611 11.9917 13.2956 11.3566 11.1342C11.3065 10.9498 11.0808 10.8577 10.6797 10.8577H5.89139C5.70755 10.8577 5.56549 11.0085 5.46521 11.3101C4.79668 13.2202 4.46242 14.3764 4.46242 14.7785C4.46242 15.1471 4.59612 15.4571 4.86353 15.7085C5.14766 15.943 5.53206 16.1273 6.01674 16.2614C6.50142 16.3954 6.74376 16.5546 6.74376 16.7389C6.74376 16.9232 6.50142 17.0154 6.01674 17.0154L3.73539 16.9651ZM6.09195 9.60101C6.09195 9.7183 6.26744 9.77694 6.61842 9.77694H10.5042C10.7382 9.77694 10.8552 9.73505 10.8552 9.65127L10.8051 9.39994L8.82455 3.39303C8.72427 3.09142 8.65742 2.94062 8.624 2.94062C8.57386 2.94062 8.49865 3.08305 8.39837 3.36789L6.14209 9.39994L6.09195 9.60101Z" fill="#157D82"/>
<path d="M117.52 28.5014L117.646 28.4134C120.303 29.0041 119.401 31.0399 118.423 30.311C118.36 29.6827 117.921 28.9413 117.52 28.5014ZM120.178 30.7132L120.779 29.9466C120.779 29.9466 121.469 30.487 121.895 30.8765C121.87 31.0148 121.732 31.0776 121.557 31.0776H115.753L115.653 30.7132H120.178ZM116.279 32.3217H119.614L120.19 31.6054C120.19 31.6054 120.842 32.1081 121.243 32.4851C121.206 32.6233 121.08 32.6861 120.917 32.6861H116.38L116.279 32.3217ZM119.614 33.9428L120.19 33.214C120.19 33.214 120.842 33.7166 121.243 34.1062C121.206 34.2444 121.08 34.3073 120.917 34.3073H116.38L116.279 33.9428H119.614ZM117.458 38.3789H119.839V35.9786H117.458V38.3789ZM119.714 35.6016L120.215 35.0738L121.306 35.8907C121.218 35.9912 121.03 36.0917 120.779 36.142V39.1203C120.767 39.1957 120.303 39.4094 119.99 39.4094H119.839V38.7559H117.458V39.5099C117.458 39.6104 117.057 39.8241 116.681 39.8241H116.543V35.1869L117.52 35.6016H119.714ZM125.605 32.9501L126.232 32.1583C126.232 32.1583 126.934 32.7113 127.36 33.1134C127.323 33.2517 127.197 33.3145 127.022 33.3145H124.44V39.5853C124.44 39.7235 124.001 39.9749 123.637 39.9749H123.449V33.3145H121.218L121.118 32.9501H123.449V28.4386L124.891 28.6019C124.853 28.7779 124.766 28.9036 124.44 28.9538V32.9501H125.605Z" fill="#157D82"/>
<path d="M101.526 33.9177L101.4 33.7669C102.566 32.6987 102.729 31.4043 102.729 30.2733V28.803L103.82 29.2554H105.387L105.888 28.715L106.878 29.557C106.79 29.645 106.64 29.7078 106.414 29.7455V32.2086C106.414 32.3468 106.44 32.3971 106.64 32.3971H107.079C107.242 32.3971 107.417 32.3971 107.505 32.3845H107.693C107.768 32.372 107.868 32.3468 107.931 32.3343H108.057L108.107 32.3468C108.357 32.4474 108.458 32.5228 108.458 32.7238C108.458 33.0883 108.132 33.2768 106.991 33.2768H106.352C105.612 33.2768 105.499 33.0631 105.499 32.4725V29.6199H103.644V30.2608C103.644 31.3289 103.444 32.9249 101.526 33.9177ZM100.147 32.3594L100.686 31.6934C100.686 31.6934 101.275 32.1583 101.651 32.5228C101.614 32.661 101.488 32.7238 101.313 32.7238H97.4771L97.3768 32.3594H100.147ZM98.1916 28.5894L98.3044 28.514C100.962 29.0669 100.122 30.9896 99.1442 30.311C99.0439 29.7204 98.5802 29.0167 98.1916 28.5894ZM100.648 30.7634L101.212 30.0471C101.212 30.0471 101.852 30.5498 102.24 30.9268C102.215 31.065 102.09 31.1279 101.927 31.1279H96.9255L96.8378 30.7634H100.648ZM100.147 33.9805L100.686 33.3145C100.686 33.3145 101.275 33.7795 101.651 34.1439C101.614 34.2821 101.488 34.345 101.313 34.345H97.4771L97.3768 33.9805H100.147ZM98.4548 38.4543H100.348V35.9786H98.4548V38.4543ZM101.25 36.1294V39.1455C101.238 39.2209 100.799 39.4219 100.485 39.4219H100.348V38.8187H98.4548V39.5476C98.4548 39.6481 98.0662 39.8618 97.6902 39.8618H97.5523V35.1744L98.5049 35.6016H100.222L100.711 35.0864L101.764 35.8907C101.689 35.9912 101.501 36.0792 101.25 36.1294ZM106.101 34.546H102.867C103.256 35.5765 103.857 36.4185 104.622 37.0719C105.274 36.3305 105.763 35.476 106.101 34.546ZM106.703 33.591L107.706 34.5209C107.605 34.634 107.48 34.6717 107.179 34.6843C106.728 35.765 106.101 36.7201 105.261 37.5495C106.201 38.1778 107.342 38.6051 108.633 38.8816L108.621 39.0198C108.194 39.0952 107.894 39.3842 107.743 39.8618C106.49 39.4471 105.449 38.8816 104.622 38.1024C103.582 38.9193 102.278 39.5476 100.636 39.9749L100.548 39.7864C102.002 39.2586 103.193 38.5171 104.146 37.5998C103.444 36.7955 102.955 35.7901 102.616 34.546H101.889L101.789 34.1816H106.089L106.703 33.591Z" fill="#157D82"/>
<path d="M87.374 29.1046L88.8406 29.7832C88.7779 29.9215 88.6024 30.0094 88.3266 29.9717C87.5495 30.9896 86.5717 32.0201 85.7068 32.6861L85.5439 32.5605C86.0954 31.7436 86.835 30.3487 87.374 29.1046ZM79.2263 29.268L79.3767 29.18C82.7611 30.864 81.8461 33.3145 80.7556 32.3971C80.6302 31.3792 79.8656 30.0974 79.2263 29.268ZM89.3169 36.4185L89.3545 38.5548C89.6553 38.6679 89.7305 38.7936 89.7305 39.0072C89.7305 39.4596 89.3043 39.6356 87.2486 39.6356H85.9074C84.8043 39.6356 84.5662 39.4219 84.5662 38.6428V33.6412H82.9492C82.6859 36.9211 81.633 38.8941 78.048 40L77.9853 39.8241C80.8684 38.4292 81.6581 36.5567 81.7959 33.6412H78.1734L78.0731 33.2894H83.3001V28.4134L84.7918 28.5517C84.7667 28.7276 84.6414 28.8533 84.3405 28.9036V33.2894H87.6748L88.3642 32.4097C88.3642 32.4097 89.1665 33.0129 89.6302 33.4402C89.5926 33.5784 89.4673 33.6412 89.3043 33.6412H85.594V38.3915C85.594 38.6177 85.6567 38.6931 86.1079 38.6931H87.2988C87.8252 38.6931 88.2138 38.6805 88.4018 38.6554C88.5648 38.6428 88.6149 38.6051 88.6776 38.4669C88.7904 38.2155 88.9659 37.3358 89.1539 36.4185H89.3169Z" fill="#157D82"/>
<path d="M59.9727 28.7528L60.0855 28.6522C63.119 29.0167 62.5424 31.0902 61.4644 30.5372C61.2262 29.9089 60.5368 29.18 59.9727 28.7528ZM59.183 31.618L59.2958 31.5049C62.1287 31.7939 61.502 33.792 60.4992 33.2014C60.3112 32.6233 59.697 31.9824 59.183 31.618ZM70.5647 31.9698H67.268C68.0703 34.169 69.5744 36.0917 71.1288 37.0468L71.0912 37.1725C70.665 37.2227 70.3265 37.5369 70.151 38.0522C68.7221 36.7703 67.6566 34.6968 67.0424 32.0704V39.5853C67.0424 39.7235 66.6162 39.9749 66.2276 39.9749H66.0271V33.7166C65.1371 35.5011 63.8084 37.0342 62.0159 38.1904L61.8906 38.0396C63.6329 36.4813 64.8864 34.2193 65.5508 31.9698H62.9184L62.8181 31.618C62.2541 33.2391 61.5521 35.1995 61.4017 35.7147C61.2889 36.1169 61.1886 36.5441 61.2011 36.8583C61.2137 37.4364 61.6148 37.9768 61.5647 39.0072C61.5396 39.5727 61.2638 39.9246 60.7624 39.9246C60.5243 39.9246 60.3362 39.711 60.2861 39.2963C60.4741 38.027 60.4114 36.9965 60.1106 36.8206C59.9477 36.6949 59.7471 36.6447 59.4839 36.6321V36.3556H60.0479C60.2234 36.3556 60.261 36.3556 60.3864 36.0917C60.6496 35.6393 60.6496 35.6393 63.0312 30.3487L63.2443 30.399C63.119 30.7509 62.9811 31.1656 62.8307 31.6054H66.0271V28.426L67.4937 28.5768C67.4686 28.7528 67.3683 28.8784 67.0424 28.9287V31.6054H69.0981L69.7374 30.776C69.7374 30.776 70.4644 31.3541 70.8906 31.7688C70.8655 31.907 70.7402 31.9698 70.5647 31.9698Z" fill="#157D82"/>
</svg>
