<svg width="64" height="64" viewBox="0 0 64 64" fill="none" xmlns="http://www.w3.org/2000/svg">
<g clip-path="url(#clip0_33_124)">
<path d="M32 63.9998C49.6728 63.9998 63.9995 49.6732 63.9995 32.0004C63.9995 14.3276 49.6728 0.000976562 32 0.000976562C14.3272 0.000976562 0.000610352 14.3276 0.000610352 32.0004C0.000610352 49.6732 14.3272 63.9998 32 63.9998Z" fill="#157D82"/>
<path d="M34.5829 42.8507C32.1637 42.6636 31.1473 41.4641 29.25 40.3124C28.2073 45.7833 26.933 51.0277 23.1585 53.7674C21.992 45.4986 24.8686 39.2879 26.2046 32.6956C23.9274 28.8623 26.4784 21.1468 31.2813 23.048C37.1926 25.3856 26.1635 37.3011 33.5675 38.7894C41.2973 40.3432 44.4529 25.3771 39.6591 20.5091C32.733 13.481 19.4987 20.3494 21.1261 30.4105C21.5226 32.8701 24.0643 33.6168 22.1415 37.0108C17.7087 36.0291 16.3865 32.533 16.5565 27.8721C16.8308 20.2427 23.4118 14.9007 30.0127 14.1615C38.3608 13.2271 46.1961 17.2269 47.2776 25.0793C48.4943 33.9419 43.5088 43.5398 34.5829 42.8507Z" fill="#EEEEEE"/>
</g>
<defs>
<clipPath id="clip0_33_124">
<rect width="64" height="64" fill="white"/>
</clipPath>
</defs>
</svg>
