<svg width="536" height="368" viewBox="0 0 536 368" fill="none" xmlns="http://www.w3.org/2000/svg">
<rect x="144.25" y="0.25" width="207.5" height="79.5" rx="39.75" stroke="white" stroke-width="0.5"/>
<path d="M210.76 32.3L210.94 32.16C215.54 33.16 214.3 36.44 212.66 35.34C212.44 34.3 211.52 33.04 210.76 32.3ZM216.16 39.16L217.7 40.4C217.54 40.56 217.24 40.66 216.88 40.52C216.34 41.04 215.68 41.54 215 41.92C218.26 43.34 217.3 45.6 215.92 44.76C215.52 43.82 214.46 42.68 213.52 41.86V50.06C213.52 50.2 212.98 50.62 212.2 50.62H211.92V42.54C210.9 43.52 209.78 44.36 208.66 45.04L208.42 44.82C210.92 42.76 213.38 39.42 214.5 36.7H208.86L208.68 36.12H214.46L215.46 35.16L217.1 36.78C216.92 36.94 216.7 36.98 216.22 37.02C215.58 38.3 214.62 39.64 213.52 40.9V41.42C213.86 41.52 214.16 41.58 214.44 41.68C215 41.06 215.64 40.14 216.16 39.16ZM225.76 33.52L227.46 35C227.3 35.18 227.04 35.28 226.58 35.36C226.42 43.82 226.06 48.22 225.04 49.48C224.42 50.2 223.56 50.52 222.58 50.52C222.6 49.98 222.52 49.54 222.26 49.32C221.96 49.04 221.18 48.82 220.42 48.66L220.44 48.32C221.24 48.4 222.54 48.52 222.98 48.52C223.36 48.52 223.52 48.46 223.74 48.22C224.56 47.44 224.86 42.78 225.02 35.12H221.64C221.2 43.02 220.32 47.94 214.72 50.6L214.48 50.3C218.9 47.56 219.6 42.24 219.9 35.12H216.5L216.32 34.52H224.8L225.76 33.52ZM229.22 50.7L229.16 50.32C235.14 49.14 239.9 47.48 243.3 41.32L245.46 42.54C245.32 42.78 245.08 42.82 244.54 42.72C240.56 48.66 235.78 50.04 229.22 50.7ZM233.48 41L235.6 42.08C235.48 42.28 235.32 42.38 234.84 42.3C233.72 43.78 231.68 45.6 229.42 46.7L229.22 46.42C231.02 45 232.7 42.7 233.48 41ZM238.84 41.26V46.14C238.84 46.36 238.06 46.78 237.44 46.76H237.24V40.48L239.56 40.68C239.54 40.98 239.36 41.16 238.84 41.26ZM244.18 39.42L245.28 38.08C245.28 38.08 246.5 39.02 247.26 39.7C247.2 39.92 247 40.02 246.72 40.02H228.96L228.8 39.42H232.42V33.76L234.62 33.98C234.58 34.22 234.42 34.4 233.96 34.48V39.42H237.22V32.16L239.58 32.38C239.54 32.68 239.34 32.86 238.84 32.96V35.66H242.14L243.22 34.32C243.22 34.32 244.46 35.24 245.24 35.92C245.18 36.14 244.98 36.24 244.68 36.24H238.84V39.42H244.18ZM258.92 37.86L258.62 37.68C259.44 36.34 260.2 34.24 260.62 32.18L262.78 32.84C262.72 33.08 262.5 33.26 262.06 33.26C261.86 33.7 261.66 34.14 261.42 34.58H264.74L265.58 33.7L267.12 35.2C266.98 35.36 266.74 35.4 266.36 35.42C265.86 36.22 264.96 37.32 264.18 37.98L263.92 37.82C264.24 37.08 264.62 36 264.82 35.16H261.1C260.46 36.22 259.72 37.18 258.92 37.86ZM259.78 40.16H255.26L255.1 39.64H257.98L258.8 38.6C258.8 38.6 259.7 39.32 260.24 39.86C260.2 40.06 260.02 40.16 259.78 40.16ZM253 38.5L253.82 37.48C253.82 37.48 254.74 38.2 255.32 38.76C255.26 38.98 255.08 39.08 254.8 39.08H249.7L249.54 38.5H253ZM259.1 35.04H255.56L255.42 34.52H257.36L258.14 33.5C258.14 33.5 259.04 34.2 259.58 34.74C259.54 34.94 259.36 35.04 259.1 35.04ZM250.14 32.52L250.32 32.4C254.54 33.26 253.22 36.26 251.68 35.22C251.5 34.3 250.74 33.2 250.14 32.52ZM253.58 35.96L254.46 34.84C254.46 34.84 255.46 35.62 256.08 36.22C256.02 36.44 255.84 36.54 255.58 36.54H248.86L248.7 35.96H253.58ZM254.8 41.64H249.7L249.54 41.06H253L253.82 40.04C253.82 40.04 254.74 40.76 255.32 41.32C255.26 41.54 255.08 41.64 254.8 41.64ZM250.96 48.18H253.6V44.22H250.96V48.18ZM253.4 43.62L254.18 42.8L255.82 44.08C255.7 44.22 255.4 44.38 255.02 44.46V49.26C255 49.4 254.3 49.7 253.82 49.7H253.6V48.78H250.96V49.96C250.96 50.1 250.34 50.42 249.76 50.42H249.56V42.96L251.06 43.62H253.4ZM258.52 48.66H263.98V43.82H258.52V48.66ZM263.78 43.24L264.58 42.36L266.3 43.7C266.18 43.84 265.88 44 265.48 44.08V50.08C265.46 50.2 264.72 50.5 264.22 50.5H263.98V49.26H258.52V50.12C258.52 50.26 257.88 50.58 257.26 50.58H257.02V42.54L258.62 43.24H263.78ZM261.74 35.9L263.86 36.36C263.8 36.58 263.62 36.76 263.18 36.76C263.16 36.9 263.12 37.04 263.08 37.18C263.46 39.14 264.48 40.52 267.2 41.24L267.18 41.48C266.48 41.6 266.14 41.84 266.04 42.58C263.98 41.78 263.18 40.1 262.84 38.08C262.26 39.84 261.02 41.68 257.98 42.82L257.76 42.54C260.9 40.9 261.62 38.18 261.74 35.9ZM271.02 32.4L271.22 32.28C275.44 33.18 274.06 36.3 272.5 35.2C272.36 34.24 271.66 33.1 271.02 32.4ZM274.5 35.9L275.42 34.74C275.42 34.74 276.48 35.56 277.12 36.18C277.06 36.4 276.88 36.5 276.6 36.5H268.88L268.72 35.9H274.5ZM269.64 38.46H273.76L274.64 37.38C274.64 37.38 275.6 38.14 276.2 38.72C276.16 38.94 275.98 39.04 275.7 39.04H269.8L269.64 38.46ZM273.76 41.02L274.64 39.94C274.64 39.94 275.6 40.7 276.2 41.28C276.16 41.5 275.98 41.6 275.7 41.6H269.8L269.64 41.02H273.76ZM271.4 48.12H274.22V44.2H271.4V48.12ZM274.02 43.62L274.8 42.78L276.5 44.08C276.38 44.22 276.08 44.38 275.68 44.46V49.22C275.66 49.36 274.94 49.68 274.44 49.68H274.22V48.7H271.4V49.9C271.4 50.04 270.78 50.38 270.18 50.38H269.96V42.96L271.5 43.62H274.02ZM282.12 39.34H279.4V41.72H282.12V39.34ZM279.4 44.88H282.12V42.3H279.4V44.88ZM285.68 34.76L287.36 36.2C287.22 36.36 286.96 36.48 286.52 36.54C286.5 44.06 286.42 48.48 285.58 49.6C285.04 50.28 284.22 50.6 283.18 50.6C283.2 50.08 283.1 49.66 282.8 49.44C282.44 49.16 281.56 48.92 280.66 48.76L280.68 48.42C281.64 48.52 283.14 48.64 283.6 48.64C284.02 48.64 284.14 48.58 284.32 48.38C284.94 47.72 284.98 43.12 285 36.32H279.24C278.88 36.96 278.52 37.56 278.12 38.14L279.5 38.76H281.92L282.68 37.94L284.34 39.2C284.22 39.36 283.9 39.52 283.48 39.6V46.06C283.46 46.18 282.78 46.5 282.32 46.5H282.12V45.46H279.4V46.62C279.4 46.76 278.82 47.08 278.24 47.08H278.02V38.28C277.44 39.08 276.84 39.82 276.2 40.42L275.9 40.24C277.12 38.28 278.36 35.24 279.02 32.28L281.34 33.04C281.26 33.26 281.02 33.44 280.6 33.42C280.28 34.22 279.94 35 279.56 35.72H284.78L285.68 34.76Z" fill="white"/>
<rect x="236.25" y="72.25" width="207.5" height="79.5" rx="39.75" stroke="white" stroke-width="0.5"/>
<path d="M308.2 112.94L308 112.7C309.86 111 310.12 108.94 310.12 107.14V104.8L311.86 105.52H314.36L315.16 104.66L316.74 106C316.6 106.14 316.36 106.24 316 106.3V110.22C316 110.44 316.04 110.52 316.36 110.52H317.06C317.32 110.52 317.6 110.52 317.74 110.5H318.04C318.16 110.48 318.32 110.44 318.42 110.42H318.62L318.7 110.44C319.1 110.6 319.26 110.72 319.26 111.04C319.26 111.62 318.74 111.92 316.92 111.92H315.9C314.72 111.92 314.54 111.58 314.54 110.64V106.1H311.58V107.12C311.58 108.82 311.26 111.36 308.2 112.94ZM306 110.46L306.86 109.4C306.86 109.4 307.8 110.14 308.4 110.72C308.34 110.94 308.14 111.04 307.86 111.04H301.74L301.58 110.46H306ZM302.88 104.46L303.06 104.34C307.3 105.22 305.96 108.28 304.4 107.2C304.24 106.26 303.5 105.14 302.88 104.46ZM306.8 107.92L307.7 106.78C307.7 106.78 308.72 107.58 309.34 108.18C309.3 108.4 309.1 108.5 308.84 108.5H300.86L300.72 107.92H306.8ZM306 113.04L306.86 111.98C306.86 111.98 307.8 112.72 308.4 113.3C308.34 113.52 308.14 113.62 307.86 113.62H301.74L301.58 113.04H306ZM303.3 120.16H306.32V116.22H303.3V120.16ZM307.76 116.46V121.26C307.74 121.38 307.04 121.7 306.54 121.7H306.32V120.74H303.3V121.9C303.3 122.06 302.68 122.4 302.08 122.4H301.86V114.94L303.38 115.62H306.12L306.9 114.8L308.58 116.08C308.46 116.24 308.16 116.38 307.76 116.46ZM315.5 113.94H310.34C310.96 115.58 311.92 116.92 313.14 117.96C314.18 116.78 314.96 115.42 315.5 113.94ZM316.46 112.42L318.06 113.9C317.9 114.08 317.7 114.14 317.22 114.16C316.5 115.88 315.5 117.4 314.16 118.72C315.66 119.72 317.48 120.4 319.54 120.84L319.52 121.06C318.84 121.18 318.36 121.64 318.12 122.4C316.12 121.74 314.46 120.84 313.14 119.6C311.48 120.9 309.4 121.9 306.78 122.58L306.64 122.28C308.96 121.44 310.86 120.26 312.38 118.8C311.26 117.52 310.48 115.92 309.94 113.94H308.78L308.62 113.36H315.48L316.46 112.42ZM323.72 104.32L323.92 104.18C328.16 105.12 326.72 108.36 325.16 107.2C325.06 106.2 324.36 105.02 323.72 104.32ZM327.96 107.84L328.92 106.62C328.92 106.62 330.02 107.48 330.7 108.1C330.66 108.32 330.44 108.42 330.16 108.42H320.9L320.74 107.84H327.96ZM321.74 110.4H327.06L327.98 109.26C327.98 109.26 329.02 110.06 329.66 110.66C329.6 110.88 329.4 110.98 329.14 110.98H321.9L321.74 110.4ZM327.06 112.98L327.98 111.82C327.98 111.82 329.02 112.62 329.66 113.24C329.6 113.46 329.4 113.56 329.14 113.56H321.9L321.74 112.98H327.06ZM323.62 120.04H327.42V116.22H323.62V120.04ZM327.22 115.62L328.02 114.78L329.76 116.08C329.62 116.24 329.32 116.4 328.92 116.48V121.22C328.9 121.34 328.16 121.68 327.66 121.68H327.42V120.64H323.62V121.84C323.62 122 322.98 122.34 322.38 122.34H322.16V114.96L323.72 115.62H327.22ZM336.62 111.4L337.62 110.14C337.62 110.14 338.74 111.02 339.42 111.66C339.36 111.88 339.16 111.98 338.88 111.98H334.76V121.96C334.76 122.18 334.06 122.58 333.48 122.58H333.18V111.98H329.62L329.46 111.4H333.18V104.22L335.48 104.48C335.42 104.76 335.28 104.96 334.76 105.04V111.4H336.62ZM343.42 104.38L343.62 104.24C347.88 105.16 346.48 108.34 344.92 107.2C344.78 106.24 344.08 105.08 343.42 104.38ZM347.5 107.88L348.46 106.68C348.46 106.68 349.52 107.52 350.18 108.14C350.12 108.36 349.94 108.46 349.66 108.46H340.9L340.74 107.88H347.5ZM341.84 111L341.68 110.42H346.68L347.56 109.3C347.56 109.3 348.58 110.1 349.2 110.68C349.16 110.9 348.96 111 348.68 111H341.84ZM346.68 113L347.56 111.88C347.56 111.88 348.58 112.66 349.2 113.26C349.16 113.48 348.96 113.58 348.68 113.58H341.84L341.68 113H346.68ZM343.52 120.08H347.02V116.22H343.52V120.08ZM346.82 115.62L347.62 114.78L349.34 116.08C349.2 116.24 348.9 116.4 348.5 116.48V121.22C348.48 121.36 347.76 121.68 347.26 121.68H347.02V120.68H343.52V121.88C343.52 122.02 342.88 122.36 342.28 122.36H342.06V114.94L343.6 115.62H346.82ZM357.06 109.22L357.96 107.82C357.96 107.82 359.04 108.8 359.6 109.48C359.54 109.7 359.38 109.8 359.1 109.8H356.44V120.36C356.44 121.62 356.16 122.38 353.88 122.6C353.8 122.08 353.66 121.7 353.32 121.42C352.94 121.14 352.34 120.94 351.24 120.78V120.5C351.24 120.5 353.82 120.7 354.3 120.7C354.74 120.7 354.86 120.56 354.86 120.22V109.8H349.18L349.02 109.22H354.86V104.32L357.18 104.56C357.12 104.84 356.92 105.04 356.44 105.12V109.22H357.06ZM349.46 111.98L349.66 111.8C354.44 113.84 352.84 117.5 351.46 116.12C351.18 115 350.62 113.16 349.46 111.98ZM362.52 104.58L362.72 104.46C366.94 105.3 365.66 108.24 364.12 107.22C363.9 106.34 363.14 105.26 362.52 104.58ZM366.14 107.98L366.98 106.92C366.98 106.92 367.96 107.68 368.58 108.26C368.52 108.48 368.34 108.58 368.06 108.58H360.86L360.7 107.98H366.14ZM361.48 110.52H365.4L366.2 109.52C366.2 109.52 367.08 110.24 367.64 110.78C367.58 111 367.4 111.1 367.12 111.1H361.64L361.48 110.52ZM365.42 113.08L366.22 112.1C366.22 112.1 367.12 112.8 367.68 113.36C367.62 113.58 367.44 113.68 367.16 113.68H361.64L361.48 113.08H365.42ZM363.18 120.2H365.64V116.22H363.18V120.2ZM365.44 115.62L366.22 114.8L367.88 116.06C367.76 116.22 367.46 116.38 367.08 116.44V121.22C367.06 121.36 366.36 121.68 365.88 121.68H365.64V120.8H363.18V121.96C363.18 122.1 362.56 122.42 361.96 122.42H361.74V114.96L363.26 115.62H365.44ZM374.88 116.72H376.3V113.42H374.88V116.72ZM372.38 116.72H373.74V113.42H372.38V116.72ZM369.78 116.72H371.26V113.42H369.78V116.72ZM376.1 112.84L376.8 112L378.5 113.28C378.4 113.42 378.08 113.58 377.72 113.64V120.8C377.72 121.88 377.54 122.44 375.98 122.6C375.96 122.2 375.9 121.86 375.74 121.64C375.58 121.46 375.32 121.3 374.8 121.22V120.9C374.8 120.9 375.72 120.98 376 120.98C376.24 120.98 376.3 120.88 376.3 120.64V117.3H374.88V120.62C374.88 120.7 374.5 121 373.94 121H373.74V117.3H372.38V121.06C372.38 121.14 372 121.42 371.44 121.42H371.26V117.3H369.78V122.08C369.78 122.22 369.18 122.56 368.58 122.56H368.36V112.14L369.88 112.84H376.1ZM373.46 110.3L374.36 109.14C374.36 109.14 375.4 109.96 376.06 110.58C376 110.8 375.82 110.9 375.54 110.9H370.06L369.9 110.3H373.46ZM373.58 105.3C374.7 107.38 377.34 109.24 379.52 110.16L379.48 110.4C378.8 110.64 378.34 111.04 378.18 111.66C376.12 110.32 374.34 108.08 373.3 105.78C372.06 107.92 370.04 110.42 367.6 111.92L367.42 111.72C369.48 109.78 371.46 106.4 372.2 104.08L374.4 104.94C374.32 105.16 374.12 105.3 373.58 105.3Z" fill="white"/>
<rect x="328.25" y="144.25" width="207.5" height="79.5" rx="39.75" stroke="white" stroke-width="0.5"/>
<path d="M400.42 176.32L400.6 176.18C405.08 176.82 403.54 180.22 401.88 178.98C401.8 178.04 401.12 176.92 400.42 176.32ZM408.56 179.98H395.7C395.76 181.34 395.22 182.24 394.58 182.62C394.02 183 393.16 182.92 392.9 182.3C392.7 181.74 393.06 181.24 393.6 180.98C394.34 180.58 395.16 179.52 395.06 178.34L395.38 178.32C395.5 178.7 395.6 179.06 395.64 179.4H408.5L409.46 178.42L411.22 180.1C411.06 180.24 410.84 180.28 410.46 180.3C409.9 180.94 408.86 181.76 408.08 182.26L407.84 182.1C408.08 181.54 408.38 180.68 408.56 179.98ZM402.8 187.7V192.46C403.8 192.6 404.94 192.64 406.22 192.64C407.38 192.64 410.02 192.64 411.32 192.6V192.88C410.7 193 410.4 193.56 410.36 194.22H406.1C401.5 194.22 398.94 193.36 397.36 189.5C396.5 191.5 395.08 193.36 392.86 194.64L392.64 194.42C395.32 192.14 396.44 188.48 396.78 185.38L399.14 185.86C399.06 186.14 398.84 186.3 398.38 186.32C398.2 187.18 397.94 188.1 397.58 188.98C398.44 190.68 399.6 191.62 401.2 192.1V183.4H395.36L395.2 182.82H406.08L407.12 181.6C407.12 181.6 408.26 182.46 409.02 183.08C408.96 183.3 408.74 183.4 408.46 183.4H402.8V187.12H406.02L407.04 185.84C407.04 185.84 408.2 186.72 408.9 187.38C408.86 187.6 408.66 187.7 408.38 187.7H402.8ZM425.84 185.1V184.82C425.84 184.82 427.54 184.94 427.92 184.94C428.22 184.94 428.32 184.84 428.32 184.58V176.32L430.52 176.56C430.46 176.84 430.26 177 429.8 177.08V184.62C429.8 185.74 429.58 186.38 427.68 186.54C427.64 186.12 427.56 185.78 427.32 185.58C427.06 185.38 426.66 185.22 425.84 185.1ZM426.48 177.62V183.64C426.48 183.76 425.84 184.06 425.32 184.06H425.06V176.86L427.18 177.1C427.14 177.36 426.96 177.54 426.48 177.62ZM418.06 180.32V178.66H415.66C415.28 179.24 414.8 179.72 414.3 180.1L414 179.92C414.52 179.02 414.96 177.62 415.18 176.24L417.22 176.86C417.14 177.08 416.94 177.26 416.5 177.24C416.36 177.52 416.22 177.82 416.04 178.08H418.06V176.18L420.22 176.4C420.16 176.68 420 176.86 419.5 176.92V178.08H421.14L422.06 176.96C422.06 176.96 423.02 177.72 423.68 178.34C423.62 178.56 423.44 178.66 423.16 178.66H419.5V180.32H421.84L422.74 179.22C422.74 179.22 423.76 180 424.4 180.6C424.36 180.82 424.14 180.92 423.88 180.92H419.5V182.32H421.76L422.46 181.52L424.2 182.78C424.08 182.94 423.74 183.12 423.34 183.18V184.36C423.34 185.26 423.14 185.76 421.64 185.9C421.62 185.6 421.58 185.34 421.42 185.18C421.26 185.04 421 184.92 420.5 184.84V184.54C420.5 184.54 421.34 184.62 421.66 184.62C421.9 184.62 421.96 184.5 421.96 184.28V182.9H419.5V186.16C419.5 186.32 418.88 186.64 418.34 186.64H418.06V182.9H415.98V185.66C415.98 185.78 415.36 186.08 414.82 186.08H414.62V181.68L416.08 182.32H418.06V180.92H413.3L413.14 180.32H418.06ZM427.72 188.34L429.62 189.42C429.5 189.6 429.32 189.68 428.9 189.6C428.1 190.04 426.74 190.56 425.48 190.9C427.14 191.92 429.18 192.6 431.3 192.98L431.26 193.2C430.6 193.34 430.14 193.84 429.94 194.64C426.42 193.5 423.64 191.62 422.18 188.44C421.48 189.04 420.64 189.58 419.7 190.06V192.7C420.76 192.44 422.06 192.12 423.36 191.78L423.44 192.06C422.46 192.58 420.66 193.52 418.66 194.44C418.54 194.64 418.38 194.78 418.24 194.84L417.28 193.24C418.02 192.82 418.14 192.64 418.14 192.36V190.76C416.64 191.32 414.96 191.78 413.2 192.12L413.06 191.8C415.86 190.96 418.4 189.66 420.08 188.18H413.32L413.16 187.6H421.84C421.62 187.04 421.08 186.44 420.58 186.12L420.74 185.96C423.04 185.8 423.36 187.06 422.84 187.6H428.14L429.12 186.38C429.12 186.38 430.28 187.22 430.98 187.86C430.94 188.08 430.72 188.18 430.46 188.18H422.54C423.12 189.1 423.94 189.9 424.92 190.56C425.96 189.9 427.12 188.96 427.72 188.34ZM439.92 176.18L440.12 176.04C445.16 177.28 443.86 180.84 442.16 179.66C441.9 178.48 440.86 177.06 439.92 176.18ZM448.06 180.24L449.16 178.84C449.16 178.84 450.44 179.8 451.2 180.5C451.14 180.72 450.94 180.82 450.68 180.82H440.82C440.74 182 440.64 183.14 440.46 184.2H446.12L447.04 183.26L448.74 184.7C448.6 184.84 448.34 184.96 447.9 185.02C447.66 189.72 447.12 192.88 446.12 193.8C445.52 194.32 444.74 194.58 443.7 194.58C443.7 194.1 443.6 193.68 443.3 193.46C442.96 193.18 442.04 192.92 441.16 192.78L441.18 192.46C442.12 192.54 443.74 192.68 444.2 192.68C444.6 192.68 444.78 192.64 445 192.44C445.64 191.86 446.08 188.88 446.3 184.78H440.38C439.62 189.08 437.84 192.42 433.34 194.7L433.16 194.46C437.68 191.04 438.76 186.5 438.92 180.82H433.02L432.84 180.24H448.06ZM460.5 176.18L460.68 176.02C464.58 176.18 463.24 179.06 461.74 178.02C461.66 177.34 461.08 176.58 460.5 176.18ZM464.28 182.22H459.96C459.5 182.76 459.02 183.3 458.62 183.76C460.14 183.88 461.46 184 462.58 184.16C463.38 183.58 463.92 182.94 464.28 182.22ZM468.92 178.9H455.06C455.08 179.88 454.7 180.58 454.18 180.88C453.7 181.14 453 181.1 452.8 180.56C452.64 180.06 452.96 179.68 453.42 179.44C454.02 179.14 454.54 178.28 454.42 177.4L454.76 177.38C454.88 177.72 454.96 178.02 455.02 178.32H468.88L469.78 177.4L471.42 178.96C471.26 179.12 471.02 179.16 470.64 179.18C470.18 179.62 469.46 180.1 468.86 180.46C469 180.56 469.96 181.32 470.6 181.9C470.56 182.12 470.36 182.22 470.08 182.22H466.1C465.72 183.04 465.12 183.8 464.22 184.44C470.22 185.6 468.54 187.48 466.98 186.88C465.88 186.34 464.42 185.82 462.64 185.32C460.78 186.16 458.08 186.76 454.18 187.14L454.08 186.82C457.32 186.36 459.62 185.76 461.24 184.96C459.8 184.62 458.18 184.32 456.48 184.08C456.92 183.62 457.48 182.96 458.04 182.22H453.84L453.66 181.64H458.46C459.2 180.64 459.88 179.64 460.18 179.06L462.42 180C462.32 180.2 462.1 180.36 461.52 180.26C461.22 180.64 460.84 181.14 460.44 181.64H464.56C464.78 181.1 464.9 180.54 464.98 179.94L467.34 180.46C467.24 180.76 466.98 180.88 466.56 180.86C466.5 181.12 466.42 181.38 466.32 181.64H467.88L468.78 180.48L468.64 180.56L468.38 180.42C468.54 180.02 468.76 179.42 468.92 178.9ZM453.42 194.04L453.26 193.7C454.96 192.84 456.96 191.14 458.36 189.12L460.14 190.52C460.02 190.68 459.7 190.78 459.28 190.6C457.62 192.32 455.44 193.46 453.42 194.04ZM464.18 189.78L464.38 189.58C471.2 191.14 470.74 194.52 468.88 193.8C467.94 192.58 465.74 190.8 464.18 189.78ZM467.96 188.1L468.98 186.82C468.98 186.82 470.1 187.72 470.8 188.36C470.74 188.58 470.54 188.68 470.26 188.68H462.8V194.1C462.8 194.26 462.08 194.58 461.44 194.58H461.14V188.68H453.44L453.26 188.1H461.14V186.02L463.54 186.26C463.5 186.54 463.32 186.74 462.8 186.82V188.1H467.96Z" fill="white"/>
<rect x="236.25" y="216.25" width="207.5" height="79.5" rx="39.75" stroke="white" stroke-width="0.5"/>
<path d="M313.44 250.02H306.62V254.64H313.44V250.02ZM306.62 255.24V256.32C306.62 256.46 305.94 256.84 305.26 256.84H305.02V248.7L306.74 249.44H313.24L314.08 248.5L315.88 249.9C315.76 250.06 315.44 250.22 315.04 250.3V256.22C315.02 256.36 314.24 256.72 313.7 256.72H313.44V255.24H306.62ZM303.38 264.06H307.24V258.78H303.38V264.06ZM307.04 258.2L307.86 257.3L309.64 258.66C309.5 258.82 309.2 258.98 308.82 259.06V265.62C308.8 265.76 308.02 266.12 307.48 266.12H307.24V264.64H303.38V265.96C303.38 266.12 302.74 266.48 302.08 266.48H301.84V257.5L303.48 258.2H307.04ZM312.68 264.06H316.68V258.78H312.68V264.06ZM317.3 257.3L319.1 258.66C318.96 258.82 318.68 258.98 318.26 259.08V265.8C318.24 265.92 317.44 266.24 316.94 266.24H316.68V264.64H312.68V266C312.68 266.16 312.02 266.52 311.36 266.52H311.12V257.5L312.78 258.2H316.48L317.3 257.3ZM326.2 251.92H324.12C324 253.22 323.42 254.82 321.1 255.84L320.92 255.56C322.52 254.22 322.7 252.64 322.7 251.24V248.98L324.52 249.58C325.94 249.16 327.48 248.6 328.36 248.18L329.84 249.68C329.64 249.86 329.28 249.84 328.84 249.62C327.64 249.84 325.8 250.04 324.14 250.14V251.24V251.34H327.98L328.86 250.24C328.86 250.24 329.86 251.02 330.48 251.6C330.44 251.82 330.24 251.92 329.96 251.92H327.68V254.5C327.68 254.58 327.2 254.9 326.44 254.9H326.2V251.92ZM321.36 266.6L321.26 266.28C323.7 265.64 326.48 264.34 327.82 263.34L329.68 264.72C329.52 264.92 329.16 264.94 328.68 264.78C326.92 265.56 324.02 266.32 321.36 266.6ZM331.14 264.08L331.2 263.78C341.02 264.22 338.16 267.52 336.42 266.32C335.38 265.58 333.6 264.7 331.14 264.08ZM326 262.24H334.24V260.56H326V262.24ZM334.24 258.32H326V259.98H334.24V258.32ZM334.24 256.12H326V257.76H334.24V256.12ZM336.38 251.34L337.3 250.16C337.3 250.16 338.38 250.98 339.02 251.6C338.98 251.82 338.8 251.92 338.52 251.92H335.78V254.48C335.76 254.54 335.5 254.72 335.04 254.8L336.58 256C336.46 256.12 336.18 256.28 335.84 256.34V263.2C335.82 263.32 335 263.68 334.5 263.68H334.24V262.84H326V263.46C326 263.62 325.32 263.96 324.68 263.96H324.42V254.8L326.12 255.54H334.06L334.68 254.86H334.5H334.26V251.92H332.18C332 253.04 331.3 254.34 329.06 255.2L328.9 254.9C330.6 253.72 330.8 252.28 330.8 251V248.92L332.48 249.48C333.98 249.08 335.58 248.56 336.52 248.18L338.02 249.7C337.8 249.88 337.44 249.86 336.98 249.64C335.76 249.82 333.94 250 332.26 250.08V251C332.26 251.1 332.26 251.22 332.26 251.34H336.38ZM344.88 253.54V255.7C348.64 257.48 347.36 259.98 346.14 258.96C346 258.08 345.42 256.96 344.88 256.14V266.08C344.88 266.28 344.26 266.6 343.7 266.6H343.38V257.9C342.76 259.38 341.94 260.72 340.92 261.94L340.62 261.68C341.92 259.4 342.68 256.44 343.08 253.54H340.96L340.8 252.96H343.38V248.2L345.6 248.46C345.54 248.74 345.38 248.94 344.88 249.02V252.96H345.26L346.12 251.74C346.12 251.74 347.1 252.6 347.68 253.22C347.62 253.44 347.44 253.54 347.16 253.54H344.88ZM349.34 260.62L351.54 261.42C351.44 261.64 351.28 261.74 350.82 261.72C350.64 262.14 350.42 262.56 350.16 262.98C353.38 263.78 352.48 266.22 351.16 265.42C351 264.76 350.46 264 349.86 263.44C349 264.68 347.84 265.86 346.34 266.62L346.14 266.34C347.82 264.92 348.94 262.54 349.34 260.62ZM354.78 259.36H356.84V256.52H354.78V259.36ZM357.04 260.68H356.84V259.94H354.78V260.56C354.78 260.68 354.2 260.98 353.62 260.98H353.42V255.32L354.88 255.94H356.68L357.36 255.22L358.86 256.34C358.78 256.46 358.52 256.6 358.24 256.64V260.26C358.22 260.38 357.5 260.68 357.04 260.68ZM353.48 253.76L354.36 252.6C354.36 252.6 355.36 253.42 355.98 254.02C355.94 254.22 355.74 254.32 355.46 254.32H349.7L349.54 253.76H353.48ZM350.84 256.52H348.98V259.36H350.84V256.52ZM347.62 255.32L349.04 255.94H350.68L351.36 255.22L352.84 256.34C352.74 256.46 352.5 256.6 352.2 256.64V260.26C352.18 260.4 351.48 260.68 351.04 260.68H350.84V259.94H348.98V260.56C348.98 260.68 348.4 260.98 347.82 260.98H347.62V255.32ZM355.14 260.62L357.32 261.4C357.24 261.62 357.08 261.74 356.62 261.72C356.4 262.22 356.12 262.72 355.8 263.24C360.04 264.4 359.32 267.26 357.84 266.46C357.46 265.56 356.46 264.46 355.5 263.68C354.62 264.88 353.44 266 351.92 266.68L351.76 266.4C353.56 265.02 354.72 262.64 355.14 260.62ZM351.46 248.12L354 248.7C353.94 248.94 353.76 249.04 353.22 249.08C354.64 250.88 357.04 252.4 359.5 253.18L359.48 253.46C358.86 253.68 358.54 254.28 358.4 254.94C356.1 253.66 354.06 251.66 352.96 249.3C351.7 251.64 349.3 253.84 346.5 255.1L346.36 254.8C348.66 253.28 350.72 250.4 351.46 248.12ZM361.22 257.48L361.02 257.18C363.74 255.84 366.2 253.82 367.74 251.76H361.64L361.46 251.18H369.16V248.18L371.5 248.42C371.46 248.7 371.28 248.9 370.76 248.98V251.18H375.72L376.76 249.86C376.76 249.86 377.98 250.78 378.72 251.44C378.66 251.66 378.44 251.76 378.18 251.76H370.76V252.22C378.8 253.9 378.82 257.56 376.8 256.98C375.58 255.6 372.88 253.82 370.76 252.7V256.3C370.76 256.44 370.06 256.74 369.44 256.74H369.16V252.6C367.22 254.7 364.38 256.4 361.22 257.48ZM366.18 262.6H373.68V260.44H366.18V262.6ZM373.68 257.7H366.18V259.86H373.68V257.7ZM373.94 264.16H373.68V263.18H366.18V263.88C366.18 264.02 365.5 264.36 364.86 264.36H364.62V256.42L366.32 257.12H373.5L374.32 256.26L376.04 257.58C375.92 257.72 375.64 257.88 375.28 257.94V263.6C375.26 263.74 374.48 264.16 373.94 264.16ZM376.32 265.2L377.4 263.92C377.4 263.92 378.58 264.8 379.34 265.46C379.28 265.68 379.08 265.78 378.8 265.78H360.92L360.76 265.2H376.32Z" fill="white"/>
<rect x="144.25" y="288.25" width="207.5" height="79.5" rx="39.75" stroke="white" stroke-width="0.5"/>
<path d="M215.54 320.3L215.72 320.14C220.6 321.02 219.4 324.52 217.68 323.42C217.42 322.34 216.4 321.04 215.54 320.3ZM226.62 324.4H209.14L208.98 323.8H224.16L225.22 322.28C225.22 322.28 226.44 323.34 227.16 324.08C227.12 324.3 226.92 324.4 226.62 324.4ZM220.02 325.24L220.18 325.04C227.24 326.94 226.48 331.04 224.5 330C223.78 328.38 221.68 326.38 220.02 325.24ZM209.76 330.64L209.58 330.38C211.56 328.96 213.34 326.62 214.14 324.8L216.36 325.9C216.26 326.1 216.08 326.2 215.62 326.12C214.42 327.74 212.26 329.58 209.76 330.64ZM220.86 328.12L223.12 329.1C223 329.32 222.8 329.42 222.3 329.34C221.56 331 220.46 332.52 219.06 333.86C221.42 335.4 224.34 336.42 227.46 336.98L227.42 337.22C226.66 337.32 226.14 337.82 225.9 338.62C222.82 337.8 220.18 336.56 218.08 334.72C215.78 336.56 212.72 337.94 208.84 338.62L208.72 338.32C212.22 337.34 215.02 335.78 217.12 333.78C215.8 332.38 214.76 330.7 214.06 328.68L214.38 328.46C215.16 330.26 216.36 331.76 217.88 333C219.22 331.54 220.2 329.88 220.86 328.12ZM233.12 320.16L235.52 320.92C235.44 321.16 235.2 321.34 234.76 321.32C234.18 322.9 233.48 324.4 232.7 325.74L233.62 326.08C233.56 326.26 233.38 326.4 233.04 326.46V338.1C233 338.24 232.34 338.62 231.7 338.62H231.42V327.72C230.64 328.82 229.8 329.78 228.9 330.6L228.62 330.4C230.38 327.96 232.16 324.06 233.12 320.16ZM244.66 325.38L245.64 324.02C245.64 324.02 246.78 324.96 247.44 325.64C247.38 325.86 247.18 325.96 246.92 325.96H243.86V336.24C243.86 337.52 243.56 338.32 241.04 338.58C240.96 338.02 240.8 337.64 240.42 337.36C239.98 337.08 239.3 336.86 238.04 336.68V336.38C238.04 336.38 241.02 336.58 241.6 336.58C242.08 336.58 242.2 336.44 242.2 336.08V325.96H234.42L234.26 325.38H242.2V320.42L244.6 320.68C244.54 320.98 244.36 321.16 243.86 321.22V325.38H244.66ZM235.5 328.06L235.72 327.94C241.04 330.48 239.76 334.06 238.1 332.78C237.78 331.26 236.52 329.32 235.5 328.06ZM256.22 320.24L256.4 320.1C261.12 320.94 259.5 324.36 257.82 323.04C257.72 322.08 256.96 320.88 256.22 320.24ZM260.52 329.58H255.4C254.72 330.9 253.98 332.26 253.32 333.34C255.1 333.64 256.62 333.96 257.92 334.3C259.28 332.94 260.08 331.36 260.52 329.58ZM263.98 329L265.04 327.68C265.04 327.68 266.26 328.58 266.98 329.26C266.92 329.48 266.74 329.58 266.46 329.58H262.36C261.84 331.58 260.98 333.3 259.46 334.7C267 336.94 264.92 339.32 263.2 338.4C262 337.52 260.28 336.6 258.16 335.72C256.18 337.02 253.42 338 249.46 338.56L249.34 338.3C252.72 337.52 255.14 336.5 256.86 335.2C255.26 334.58 253.46 334.02 251.52 333.48C252.1 332.56 252.86 331.08 253.6 329.58H249.42L249.24 329H253.86C254.68 327.32 255.38 325.66 255.72 324.68L258.14 325.5C258.04 325.7 257.86 325.88 257.26 325.84C256.9 326.64 256.34 327.8 255.7 329H260.64C260.8 328.22 260.9 327.42 260.96 326.56L263.5 327.1C263.4 327.44 263.12 327.56 262.72 327.56C262.66 328.06 262.56 328.52 262.48 329H263.98ZM265.34 322.4L267.08 324.1C266.94 324.26 266.7 324.28 266.34 324.3C265.78 324.98 264.8 325.92 264.06 326.46L263.82 326.34C264.04 325.7 264.3 324.74 264.48 323.98H251.4C251.54 325.26 251.14 326.2 250.6 326.62C250.08 327.02 249.28 327.02 249.02 326.44C248.8 325.94 249.08 325.46 249.58 325.18C250.24 324.72 250.82 323.52 250.64 322.34H250.98C251.12 322.7 251.24 323.06 251.3 323.4H264.36L265.34 322.4ZM276.9 323.32H280.78V320.14L283.12 320.38C283.08 320.66 282.88 320.86 282.38 320.94V323.32H284.42L285.42 322.08C285.42 322.08 286.56 322.94 287.28 323.6C287.24 323.82 287.04 323.92 286.74 323.92H282.38V327.7H284.26L285.26 326.48C285.26 326.48 286.38 327.34 287.08 327.96C287.04 328.18 286.82 328.28 286.54 328.28H277.56L277.42 327.7H280.78V323.92H277.06L276.9 323.32ZM269.38 330.22L269.1 329.94C270.6 328.8 270.88 327.46 270.96 326.16H269.36L269.18 325.58H274.76V323.9H271.98L271.4 324.68L269.68 323.66C269.86 323.48 270.14 323.3 270.42 323.16V320.5L272.52 320.72C272.48 321 272.28 321.18 271.84 321.24V323.32H274.76V320.14L277.04 320.38C277 320.66 276.84 320.86 276.32 320.92V328.4L276.42 328.34C280.22 328.8 278.92 331.5 277.48 330.56C277.34 329.88 276.82 329.08 276.32 328.56V329.1C276.32 329.26 275.64 329.56 275.06 329.56H274.76V326.16H272.46C272.26 327.7 271.66 329.18 269.38 330.22ZM283.66 331.62L285.52 332.84C285.38 333.02 285.22 333.1 284.78 332.98C283.98 333.48 282.74 334.06 281.52 334.5C283.2 335.64 285.26 336.36 287.42 336.82L287.38 337.04C286.7 337.16 286.22 337.68 286 338.46C282.34 337.22 279.6 335.14 278.18 331.56C277.46 332.22 276.64 332.8 275.7 333.32V336.42C276.7 336.08 277.88 335.62 279.08 335.14L279.18 335.42C278.28 336.04 276.56 337.28 274.66 338.48C274.56 338.66 274.42 338.8 274.3 338.88L273.2 337.38C274 336.86 274.14 336.7 274.14 336.38V334.12C272.56 334.82 270.76 335.36 268.84 335.78L268.68 335.46C271.66 334.48 274.3 333.02 276.04 331.34H268.96L268.8 330.76H284.4L285.4 329.46C285.4 329.46 286.56 330.36 287.26 331.02C287.2 331.24 287.02 331.34 286.74 331.34H278.54C279.16 332.44 280 333.38 281.04 334.18C282.02 333.4 283.1 332.34 283.66 331.62Z" fill="white"/>
<circle cx="112" cy="184" r="111.75" stroke="white" stroke-width="0.5"/>
<path d="M80.26 176.28L80.44 176.14C84.62 176.44 83.38 179.58 81.78 178.56C81.64 177.76 80.94 176.8 80.26 176.28ZM85.3 188.52L85.76 188.02C84.44 187.52 83.26 186.9 82.2 186.14C80.94 186.9 79.52 187.6 78.06 188.16L78.94 188.52H85.3ZM78.7 192.68H85.48V189.1H78.7V192.68ZM84.74 182.02H79.72C79.58 182.16 79.46 182.32 79.34 182.46C80.04 183.34 80.96 184.1 82.02 184.74C83.12 183.88 84.06 182.94 84.74 182.02ZM86.04 180.42L87.78 182.12C87.58 182.28 87.32 182.32 86.74 182.36C85.88 183.44 84.68 184.48 83.3 185.44C85.64 186.54 88.5 187.22 91.4 187.56L91.36 187.8C90.66 187.92 90.16 188.44 90 189.24C89.06 189.06 88.16 188.82 87.3 188.56L87.86 188.98C87.74 189.12 87.46 189.28 87.08 189.36V194C87.06 194.12 86.28 194.46 85.74 194.46H85.48V193.26H78.7V194C78.7 194.12 78.18 194.54 77.4 194.54H77.12V188.54C75.74 189.04 74.3 189.46 72.9 189.76L72.76 189.46C75.8 188.54 78.82 187.08 81.2 185.36C80.36 184.6 79.6 183.76 79.02 182.78C77.5 184.28 75.74 185.38 74.04 186.1L73.82 185.82C75.82 184.52 78.02 182.16 79.44 179.4H75.66C75.74 180.74 75.2 181.66 74.58 182.04C74.04 182.42 73.28 182.4 73.04 181.86C72.84 181.38 73.16 180.92 73.62 180.68C74.38 180.24 75.12 179.12 75.04 177.86H75.36C75.48 178.2 75.56 178.52 75.6 178.82H88.48L89.42 177.88L91.12 179.5C90.96 179.64 90.72 179.7 90.34 179.72C89.86 180.42 88.96 181.4 88.26 182L88.04 181.86C88.2 181.2 88.44 180.2 88.6 179.4H79.52L81.58 180.46C81.46 180.66 81.18 180.8 80.76 180.7C80.58 180.96 80.4 181.2 80.2 181.44H84.86L86.04 180.42ZM105.84 185.1V184.82C105.84 184.82 107.54 184.94 107.92 184.94C108.22 184.94 108.32 184.84 108.32 184.58V176.32L110.52 176.56C110.46 176.84 110.26 177 109.8 177.08V184.62C109.8 185.74 109.58 186.38 107.68 186.54C107.64 186.12 107.56 185.78 107.32 185.58C107.06 185.38 106.66 185.22 105.84 185.1ZM106.48 177.62V183.64C106.48 183.76 105.84 184.06 105.32 184.06H105.06V176.86L107.18 177.1C107.14 177.36 106.96 177.54 106.48 177.62ZM98.06 180.32V178.66H95.66C95.28 179.24 94.8 179.72 94.3 180.1L94 179.92C94.52 179.02 94.96 177.62 95.18 176.24L97.22 176.86C97.14 177.08 96.94 177.26 96.5 177.24C96.36 177.52 96.22 177.82 96.04 178.08H98.06V176.18L100.22 176.4C100.16 176.68 100 176.86 99.5 176.92V178.08H101.14L102.06 176.96C102.06 176.96 103.02 177.72 103.68 178.34C103.62 178.56 103.44 178.66 103.16 178.66H99.5V180.32H101.84L102.74 179.22C102.74 179.22 103.76 180 104.4 180.6C104.36 180.82 104.14 180.92 103.88 180.92H99.5V182.32H101.76L102.46 181.52L104.2 182.78C104.08 182.94 103.74 183.12 103.34 183.18V184.36C103.34 185.26 103.14 185.76 101.64 185.9C101.62 185.6 101.58 185.34 101.42 185.18C101.26 185.04 101 184.92 100.5 184.84V184.54C100.5 184.54 101.34 184.62 101.66 184.62C101.9 184.62 101.96 184.5 101.96 184.28V182.9H99.5V186.16C99.5 186.32 98.88 186.64 98.34 186.64H98.06V182.9H95.98V185.66C95.98 185.78 95.36 186.08 94.82 186.08H94.62V181.68L96.08 182.32H98.06V180.92H93.3L93.14 180.32H98.06ZM107.72 188.34L109.62 189.42C109.5 189.6 109.32 189.68 108.9 189.6C108.1 190.04 106.74 190.56 105.48 190.9C107.14 191.92 109.18 192.6 111.3 192.98L111.26 193.2C110.6 193.34 110.14 193.84 109.94 194.64C106.42 193.5 103.64 191.62 102.18 188.44C101.48 189.04 100.64 189.58 99.7 190.06V192.7C100.76 192.44 102.06 192.12 103.36 191.78L103.44 192.06C102.46 192.58 100.66 193.52 98.66 194.44C98.54 194.64 98.38 194.78 98.24 194.84L97.28 193.24C98.02 192.82 98.14 192.64 98.14 192.36V190.76C96.64 191.32 94.96 191.78 93.2 192.12L93.06 191.8C95.86 190.96 98.4 189.66 100.08 188.18H93.32L93.16 187.6H101.84C101.62 187.04 101.08 186.44 100.58 186.12L100.74 185.96C103.04 185.8 103.36 187.06 102.84 187.6H108.14L109.12 186.38C109.12 186.38 110.28 187.22 110.98 187.86C110.94 188.08 110.72 188.18 110.46 188.18H102.54C103.12 189.1 103.94 189.9 104.92 190.56C105.96 189.9 107.12 188.96 107.72 188.34ZM115.56 186.58H118.28V182.46H115.64V183.26C115.64 184.28 115.64 185.42 115.56 186.58ZM118.28 177.94H115.64V181.9H118.28V177.94ZM118.1 177.36L118.86 176.46L120.58 177.8C120.46 177.96 120.18 178.08 119.82 178.16V192.46C119.82 193.66 119.58 194.36 117.66 194.54C117.6 194.06 117.5 193.66 117.26 193.44C117.02 193.18 116.6 192.98 115.8 192.86V192.56C115.8 192.56 117.5 192.68 117.86 192.68C118.2 192.68 118.28 192.56 118.28 192.28V187.16H115.52C115.32 189.78 114.72 192.52 113.02 194.64L112.7 194.46C114.12 191.16 114.14 187 114.14 183.26V176.62L115.92 177.36H118.1ZM128.62 184.52H124.72C125.16 186.48 125.94 188.1 127 189.44C127.78 187.9 128.3 186.22 128.62 184.52ZM129.42 183.02L131.04 184.46C130.92 184.64 130.72 184.68 130.28 184.74C129.8 186.72 129.06 188.66 127.84 190.38C128.92 191.44 130.2 192.28 131.64 192.88L131.58 193.1C130.9 193.18 130.34 193.66 130.04 194.42C128.8 193.64 127.76 192.7 126.92 191.54C125.98 192.56 124.82 193.48 123.4 194.22L123.2 193.94C124.48 193.02 125.5 191.9 126.32 190.62C125.36 189 124.7 187 124.3 184.52H123.08V194.1C123.08 194.24 122.6 194.64 121.82 194.64H121.56V176.62L123.34 177.36H128.36L129.16 176.52L130.8 177.84C130.68 177.98 130.46 178.08 130.06 178.12C130.02 180.48 129.84 181.74 129.2 182.22C128.78 182.56 128.12 182.7 127.3 182.7C127.3 182.3 127.22 181.98 126.96 181.76C126.7 181.54 125.96 181.36 125.28 181.26V180.94C126 180.98 127.26 181.08 127.62 181.08C127.94 181.08 128.08 181.04 128.18 180.94C128.42 180.72 128.5 179.68 128.54 177.94H123.08V183.96H128.5L129.42 183.02ZM138.88 178H133.3L133.12 177.4H139L139.94 176.46L141.58 178.06C141.42 178.2 141.2 178.22 140.78 178.26C140.08 178.9 138.82 179.76 137.82 180.4C139.2 181.58 138.42 183.02 137.28 182.4C136.9 181.36 135.68 180.1 134.74 179.4L134.92 179.24C136.04 179.42 136.86 179.74 137.42 180.1C137.9 179.48 138.48 178.66 138.88 178ZM138.66 185.7L138.42 185.56C138.8 184.92 139.28 183.94 139.6 183.16H138.04V192.4C138.04 193.58 137.76 194.44 135.74 194.62C135.72 194.12 135.58 193.72 135.32 193.46C135.04 193.2 134.54 193 133.58 192.88V192.58C133.58 192.58 135.62 192.72 136.04 192.72C136.42 192.72 136.52 192.62 136.52 192.34V186.42C135.58 188.16 134.36 189.72 132.88 191.02L132.6 190.74C134.24 188.68 135.46 185.88 136.16 183.16H133.02L132.84 182.58H139.58L140.46 181.68L142.08 183.22C141.92 183.36 141.68 183.4 141.28 183.42C140.68 184.14 139.54 185.14 138.66 185.7ZM148.24 187.36L149.06 186.5L150.72 187.86C150.58 188 150.34 188.08 149.92 188.14C149.72 191.34 149.24 193.36 148.42 194.02C147.88 194.42 147.14 194.62 146.3 194.62C146.3 194.18 146.22 193.8 145.94 193.58C145.64 193.34 144.9 193.14 144.14 193.02V192.68C144.94 192.76 146.32 192.86 146.74 192.86C147.06 192.86 147.24 192.82 147.42 192.68C147.86 192.3 148.22 190.54 148.4 187.94H145.16C144.54 190.54 143.06 193.1 138.86 194.6L138.64 194.3C141.76 192.78 143.06 190.42 143.58 187.94H139.9L139.72 187.36H143.7C143.82 186.58 143.88 185.78 143.92 185.02L146.2 185.24C146.16 185.48 146 185.68 145.52 185.74C145.46 186.28 145.4 186.82 145.28 187.36H148.24ZM147.42 179.42H143.56C143.46 179.56 143.34 179.7 143.22 179.84C143.88 180.8 144.64 181.64 145.62 182.34C146.4 181.46 147.02 180.48 147.42 179.42ZM150.78 179.42H149.32C148.7 180.8 147.82 182 146.68 183C148 183.72 149.6 184.24 151.62 184.56L151.56 184.8C151.12 185 150.84 185.52 150.74 186.26C148.52 185.64 146.92 184.82 145.7 183.8C144.1 184.96 142.12 185.82 139.78 186.42L139.64 186.12C141.78 185.34 143.54 184.3 144.9 183.06C144.1 182.2 143.46 181.26 142.9 180.18C142.24 180.88 141.52 181.46 140.78 181.92L140.54 181.7C141.68 180.44 142.84 178.4 143.48 176.18L145.66 177C145.58 177.22 145.32 177.4 144.9 177.34C144.62 177.88 144.32 178.38 144 178.84H148.48L149.46 177.54C149.46 177.54 150.62 178.44 151.28 179.1C151.24 179.32 151.04 179.42 150.78 179.42Z" fill="white"/>
</svg>
